<svg xmlns="http://www.w3.org/2000/svg" width="512" height="512" viewBox="0 0 512 512">
  <title>GhostYak</title>
  <defs>
    <linearGradient id="gold" x1="0" y1="0" x2="0.25" y2="1">
      <stop stop-color="#fff36a"/>
      <stop offset=".48" stop-color="#ffd036"/>
      <stop offset="1" stop-color="#e5a016"/>
    </linearGradient>
  </defs>
  <rect width="512" height="512" rx="80" fill="#0d1520"/>
  <g transform="translate(16 16) scale(.9375)" fill="url(#gold)" fill-rule="evenodd">
    <path d="M126 18C76 40 40 81 40 126C40 168 64 191 107 199C77 213 62 238 63 269C77 254 95 251 110 243C91 273 86 309 100 334C101 319 109 305 117 299C112 338 122 371 147 391C143 375 148 358 157 348C155 389 199 402 181 442C198 433 209 416 209 400C234 425 219 473 265 494C249 464 294 446 302 406C308 419 310 430 309 442C332 416 356 381 353 352C364 365 367 382 364 396C390 375 399 338 394 299C404 307 410 321 411 334C427 306 416 270 401 244C418 252 433 255 448 269C449 239 433 213 405 199C447 191 471 166 471 127C471 82 435 40 386 18C415 54 438 114 411 130C390 143 367 131 349 115L337 106Q344 103 352 105Q340 93 328 91Q331 85 338 84Q320 76 307 89C293 62 257 56 225 58Q240 64 245 82C211 69 180 80 152 107Q165 103 174 106C155 127 133 141 111 135C72 126 91 62 126 18Z
M143 154C127 163 118 183 124 205Q135 211 150 205C135 254 152 260 173 278C188 293 174 315 195 336C222 366 243 362 256 396C267 363 295 357 316 339C341 318 322 294 341 275C362 258 375 245 362 205Q378 210 388 205C393 183 384 164 367 154Q373 170 371 182C354 169 341 157 328 152C326 180 313 201 293 214Q298 200 293 191C282 215 265 225 256 245C248 225 230 213 221 191Q214 202 219 214C197 199 186 177 184 152C171 157 156 170 141 182Q139 170 143 154Z"/>
    <path d="M171 213C188 221 205 233 215 248C189 258 170 247 171 213ZM341 213C324 221 307 233 297 248C323 258 342 247 341 213Z
M222 285Q256 288 289 285C303 284 311 295 311 308V320Q311 345 289 345H222Q200 345 200 321V308Q200 286 222 285Z
M214 307C211 323 222 332 236 326C233 316 220 306 214 307ZM298 307C301 323 290 332 276 326C279 316 292 306 298 307Z"/>
  </g>
</svg>
